<svg width="333" height="64" viewBox="0 0 433 64" fill="none" xmlns="http://www.w3.org/2000/svg">
<path d="M110.807 43.2871V49H91.8857V43.2871H110.807ZM94.2783 13.4531V49H86.9541V13.4531H94.2783ZM108.341 27.9307V33.4971H91.8857V27.9307H108.341ZM110.782 13.4531V19.1904H91.8857V13.4531H110.782ZM128.922 41.7002C128.922 41.1956 128.775 40.7399 128.482 40.333C128.189 39.9261 127.644 39.5518 126.847 39.21C126.065 38.8519 124.934 38.5264 123.453 38.2334C122.118 37.9404 120.873 37.5742 119.718 37.1348C118.578 36.679 117.586 36.1338 116.739 35.499C115.909 34.8643 115.258 34.1156 114.786 33.2529C114.314 32.374 114.078 31.373 114.078 30.25C114.078 29.1432 114.314 28.1016 114.786 27.125C115.274 26.1484 115.966 25.2858 116.861 24.5371C117.773 23.7721 118.88 23.1781 120.182 22.7549C121.5 22.3154 122.981 22.0957 124.625 22.0957C126.92 22.0957 128.889 22.4619 130.533 23.1943C132.193 23.9268 133.463 24.9359 134.342 26.2217C135.237 27.4912 135.685 28.9398 135.685 30.5674H128.653C128.653 29.8838 128.507 29.2734 128.214 28.7363C127.937 28.1829 127.498 27.7516 126.896 27.4424C126.31 27.1169 125.545 26.9541 124.601 26.9541C123.819 26.9541 123.144 27.0924 122.574 27.3691C122.005 27.6296 121.565 27.9876 121.256 28.4434C120.963 28.8828 120.816 29.3711 120.816 29.9082C120.816 30.3151 120.898 30.6813 121.061 31.0068C121.24 31.3161 121.524 31.6009 121.915 31.8613C122.306 32.1217 122.81 32.3659 123.429 32.5938C124.063 32.8053 124.845 33.0007 125.772 33.1797C127.677 33.5703 129.378 34.083 130.875 34.7178C132.372 35.3363 133.561 36.1826 134.439 37.2568C135.318 38.3148 135.758 39.7064 135.758 41.4316C135.758 42.6035 135.497 43.6777 134.977 44.6543C134.456 45.6309 133.707 46.4854 132.73 47.2178C131.754 47.9339 130.582 48.4954 129.215 48.9023C127.864 49.293 126.342 49.4883 124.649 49.4883C122.192 49.4883 120.108 49.0488 118.399 48.1699C116.707 47.291 115.421 46.1761 114.542 44.8252C113.679 43.458 113.248 42.0583 113.248 40.626H119.913C119.946 41.5863 120.19 42.3594 120.646 42.9453C121.118 43.5312 121.712 43.9544 122.428 44.2148C123.16 44.4753 123.95 44.6055 124.796 44.6055C125.707 44.6055 126.464 44.4834 127.066 44.2393C127.669 43.9788 128.124 43.637 128.434 43.2139C128.759 42.7744 128.922 42.2699 128.922 41.7002ZM151.236 43.9951C152.099 43.9951 152.864 43.8324 153.531 43.5068C154.199 43.165 154.719 42.693 155.094 42.0908C155.484 41.4723 155.688 40.748 155.704 39.918H162.32C162.304 41.7734 161.808 43.4255 160.831 44.874C159.854 46.3063 158.544 47.4375 156.9 48.2676C155.257 49.0814 153.417 49.4883 151.383 49.4883C149.332 49.4883 147.542 49.1465 146.012 48.4629C144.498 47.7793 143.237 46.8353 142.228 45.6309C141.218 44.4102 140.462 42.9941 139.957 41.3828C139.452 39.7552 139.2 38.0137 139.2 36.1582V35.4502C139.2 33.5785 139.452 31.8369 139.957 30.2256C140.462 28.598 141.218 27.182 142.228 25.9775C143.237 24.7568 144.498 23.8047 146.012 23.1211C147.525 22.4375 149.299 22.0957 151.334 22.0957C153.499 22.0957 155.395 22.5107 157.022 23.3408C158.666 24.1709 159.952 25.359 160.88 26.9053C161.824 28.4352 162.304 30.25 162.32 32.3496H155.704C155.688 31.4707 155.501 30.6732 155.143 29.957C154.801 29.2409 154.296 28.6712 153.629 28.248C152.978 27.8086 152.172 27.5889 151.212 27.5889C150.187 27.5889 149.348 27.8086 148.697 28.248C148.046 28.6712 147.542 29.2572 147.184 30.0059C146.826 30.7383 146.573 31.5765 146.427 32.5205C146.297 33.4482 146.231 34.4248 146.231 35.4502V36.1582C146.231 37.1836 146.297 38.1683 146.427 39.1123C146.557 40.0563 146.801 40.8945 147.159 41.627C147.534 42.3594 148.046 42.9372 148.697 43.3604C149.348 43.7835 150.195 43.9951 151.236 43.9951ZM165.274 36.0605V35.5479C165.274 33.611 165.551 31.8288 166.104 30.2012C166.658 28.5573 167.464 27.1331 168.521 25.9287C169.579 24.7243 170.882 23.7884 172.428 23.1211C173.974 22.4375 175.748 22.0957 177.75 22.0957C179.752 22.0957 181.534 22.4375 183.097 23.1211C184.659 23.7884 185.969 24.7243 187.027 25.9287C188.102 27.1331 188.915 28.5573 189.469 30.2012C190.022 31.8288 190.299 33.611 190.299 35.5479V36.0605C190.299 37.9811 190.022 39.7633 189.469 41.4072C188.915 43.0348 188.102 44.459 187.027 45.6797C185.969 46.8841 184.667 47.82 183.121 48.4873C181.575 49.1546 179.801 49.4883 177.799 49.4883C175.797 49.4883 174.015 49.1546 172.452 48.4873C170.906 47.82 169.596 46.8841 168.521 45.6797C167.464 44.459 166.658 43.0348 166.104 41.4072C165.551 39.7633 165.274 37.9811 165.274 36.0605ZM172.306 35.5479V36.0605C172.306 37.1673 172.403 38.2008 172.599 39.1611C172.794 40.1214 173.103 40.9678 173.526 41.7002C173.966 42.4163 174.535 42.9779 175.235 43.3848C175.935 43.7917 176.79 43.9951 177.799 43.9951C178.775 43.9951 179.614 43.7917 180.313 43.3848C181.013 42.9779 181.575 42.4163 181.998 41.7002C182.421 40.9678 182.73 40.1214 182.926 39.1611C183.137 38.2008 183.243 37.1673 183.243 36.0605V35.5479C183.243 34.4736 183.137 33.4645 182.926 32.5205C182.73 31.5602 182.413 30.7139 181.974 29.9814C181.55 29.2327 180.989 28.6468 180.289 28.2236C179.589 27.8005 178.743 27.5889 177.75 27.5889C176.757 27.5889 175.911 27.8005 175.211 28.2236C174.527 28.6468 173.966 29.2327 173.526 29.9814C173.103 30.7139 172.794 31.5602 172.599 32.5205C172.403 33.4645 172.306 34.4736 172.306 35.5479ZM202.042 11.5V49H194.986V11.5H202.042ZM222.11 43.043V31.2754C222.11 30.429 221.972 29.7048 221.695 29.1025C221.419 28.484 220.987 28.0039 220.401 27.6621C219.832 27.3203 219.091 27.1494 218.18 27.1494C217.398 27.1494 216.723 27.2878 216.153 27.5645C215.584 27.8249 215.144 28.2074 214.835 28.7119C214.526 29.2002 214.371 29.778 214.371 30.4453H207.34C207.34 29.3223 207.6 28.2562 208.121 27.2471C208.642 26.238 209.399 25.3509 210.392 24.5859C211.384 23.8047 212.564 23.1943 213.932 22.7549C215.315 22.3154 216.861 22.0957 218.57 22.0957C220.621 22.0957 222.444 22.4375 224.039 23.1211C225.634 23.8047 226.887 24.8301 227.799 26.1973C228.727 27.5645 229.19 29.2734 229.19 31.3242V42.6279C229.19 44.0765 229.28 45.2646 229.459 46.1924C229.638 47.1038 229.898 47.9014 230.24 48.585V49H223.136C222.794 48.2839 222.534 47.3887 222.354 46.3145C222.192 45.224 222.11 44.1335 222.11 43.043ZM223.038 32.9111L223.087 36.8906H219.156C218.229 36.8906 217.423 36.9964 216.739 37.208C216.056 37.4196 215.494 37.7207 215.055 38.1113C214.615 38.4857 214.29 38.9251 214.078 39.4297C213.883 39.9342 213.785 40.4876 213.785 41.0898C213.785 41.6921 213.924 42.2373 214.2 42.7256C214.477 43.1976 214.876 43.5719 215.396 43.8486C215.917 44.109 216.528 44.2393 217.228 44.2393C218.285 44.2393 219.205 44.0277 219.986 43.6045C220.768 43.1813 221.37 42.6605 221.793 42.042C222.232 41.4235 222.46 40.8376 222.477 40.2842L224.332 43.2627C224.072 43.93 223.714 44.6217 223.258 45.3379C222.818 46.054 222.257 46.7295 221.573 47.3643C220.89 47.9827 220.068 48.4954 219.107 48.9023C218.147 49.293 217.008 49.4883 215.689 49.4883C214.013 49.4883 212.491 49.1546 211.124 48.4873C209.773 47.8037 208.699 46.8678 207.901 45.6797C207.12 44.4753 206.729 43.1081 206.729 41.5781C206.729 40.1947 206.99 38.9658 207.511 37.8916C208.032 36.8174 208.797 35.9141 209.806 35.1816C210.831 34.4329 212.109 33.8714 213.639 33.4971C215.169 33.1064 216.943 32.9111 218.961 32.9111H223.038ZM276.7 30.3965V32.0811C276.7 34.7829 276.334 37.208 275.602 39.3564C274.869 41.5049 273.836 43.3359 272.501 44.8496C271.166 46.347 269.571 47.4945 267.716 48.292C265.877 49.0895 263.834 49.4883 261.588 49.4883C259.358 49.4883 257.315 49.0895 255.46 48.292C253.621 47.4945 252.026 46.347 250.675 44.8496C249.324 43.3359 248.274 41.5049 247.525 39.3564C246.793 37.208 246.427 34.7829 246.427 32.0811V30.3965C246.427 27.6784 246.793 25.2533 247.525 23.1211C248.258 20.9727 249.291 19.1416 250.626 17.6279C251.977 16.1143 253.572 14.9587 255.411 14.1611C257.267 13.3636 259.309 12.9648 261.539 12.9648C263.785 12.9648 265.828 13.3636 267.667 14.1611C269.522 14.9587 271.118 16.1143 272.452 17.6279C273.803 19.1416 274.845 20.9727 275.577 23.1211C276.326 25.2533 276.7 27.6784 276.7 30.3965ZM269.303 32.0811V30.3477C269.303 28.4596 269.132 26.7995 268.79 25.3672C268.448 23.9349 267.944 22.7305 267.276 21.7539C266.609 20.7773 265.795 20.0449 264.835 19.5566C263.875 19.0521 262.776 18.7998 261.539 18.7998C260.302 18.7998 259.203 19.0521 258.243 19.5566C257.299 20.0449 256.493 20.7773 255.826 21.7539C255.175 22.7305 254.679 23.9349 254.337 25.3672C253.995 26.7995 253.824 28.4596 253.824 30.3477V32.0811C253.824 33.9528 253.995 35.613 254.337 37.0615C254.679 38.4938 255.183 39.7064 255.851 40.6992C256.518 41.6758 257.332 42.4163 258.292 42.9209C259.252 43.4255 260.351 43.6777 261.588 43.6777C262.825 43.6777 263.924 43.4255 264.884 42.9209C265.844 42.4163 266.65 41.6758 267.301 40.6992C267.952 39.7064 268.448 38.4938 268.79 37.0615C269.132 35.613 269.303 33.9528 269.303 32.0811ZM292.447 43.9951C293.31 43.9951 294.075 43.8324 294.742 43.5068C295.41 43.165 295.93 42.693 296.305 42.0908C296.695 41.4723 296.899 40.748 296.915 39.918H303.531C303.515 41.7734 303.019 43.4255 302.042 44.874C301.065 46.3063 299.755 47.4375 298.111 48.2676C296.467 49.0814 294.628 49.4883 292.594 49.4883C290.543 49.4883 288.753 49.1465 287.223 48.4629C285.709 47.7793 284.448 46.8353 283.438 45.6309C282.429 44.4102 281.673 42.9941 281.168 41.3828C280.663 39.7552 280.411 38.0137 280.411 36.1582V35.4502C280.411 33.5785 280.663 31.8369 281.168 30.2256C281.673 28.598 282.429 27.182 283.438 25.9775C284.448 24.7568 285.709 23.8047 287.223 23.1211C288.736 22.4375 290.51 22.0957 292.545 22.0957C294.71 22.0957 296.606 22.5107 298.233 23.3408C299.877 24.1709 301.163 25.359 302.091 26.9053C303.035 28.4352 303.515 30.25 303.531 32.3496H296.915C296.899 31.4707 296.712 30.6732 296.354 29.957C296.012 29.2409 295.507 28.6712 294.84 28.248C294.189 27.8086 293.383 27.5889 292.423 27.5889C291.397 27.5889 290.559 27.8086 289.908 28.248C289.257 28.6712 288.753 29.2572 288.395 30.0059C288.036 30.7383 287.784 31.5765 287.638 32.5205C287.507 33.4482 287.442 34.4248 287.442 35.4502V36.1582C287.442 37.1836 287.507 38.1683 287.638 39.1123C287.768 40.0563 288.012 40.8945 288.37 41.627C288.744 42.3594 289.257 42.9372 289.908 43.3604C290.559 43.7835 291.406 43.9951 292.447 43.9951ZM320.548 22.584V27.5645H305.167V22.584H320.548ZM308.976 16.0654H316.007V41.041C316.007 41.806 316.104 42.3919 316.3 42.7988C316.511 43.2057 316.821 43.4906 317.228 43.6533C317.634 43.7998 318.147 43.873 318.766 43.873C319.205 43.873 319.596 43.8568 319.938 43.8242C320.296 43.7754 320.597 43.7266 320.841 43.6777L320.865 48.8535C320.263 49.0488 319.612 49.2035 318.912 49.3174C318.212 49.4313 317.439 49.4883 316.593 49.4883C315.047 49.4883 313.696 49.236 312.54 48.7314C311.401 48.2106 310.522 47.3805 309.903 46.2412C309.285 45.1019 308.976 43.6045 308.976 41.749V16.0654ZM322.794 36.0605V35.5479C322.794 33.611 323.071 31.8288 323.624 30.2012C324.177 28.5573 324.983 27.1331 326.041 25.9287C327.099 24.7243 328.401 23.7884 329.947 23.1211C331.493 22.4375 333.268 22.0957 335.27 22.0957C337.271 22.0957 339.054 22.4375 340.616 23.1211C342.179 23.7884 343.489 24.7243 344.547 25.9287C345.621 27.1331 346.435 28.5573 346.988 30.2012C347.542 31.8288 347.818 33.611 347.818 35.5479V36.0605C347.818 37.9811 347.542 39.7633 346.988 41.4072C346.435 43.0348 345.621 44.459 344.547 45.6797C343.489 46.8841 342.187 47.82 340.641 48.4873C339.094 49.1546 337.32 49.4883 335.318 49.4883C333.316 49.4883 331.534 49.1546 329.972 48.4873C328.425 47.82 327.115 46.8841 326.041 45.6797C324.983 44.459 324.177 43.0348 323.624 41.4072C323.071 39.7633 322.794 37.9811 322.794 36.0605ZM329.825 35.5479V36.0605C329.825 37.1673 329.923 38.2008 330.118 39.1611C330.313 40.1214 330.623 40.9678 331.046 41.7002C331.485 42.4163 332.055 42.9779 332.755 43.3848C333.455 43.7917 334.309 43.9951 335.318 43.9951C336.295 43.9951 337.133 43.7917 337.833 43.3848C338.533 42.9779 339.094 42.4163 339.518 41.7002C339.941 40.9678 340.25 40.1214 340.445 39.1611C340.657 38.2008 340.763 37.1673 340.763 36.0605V35.5479C340.763 34.4736 340.657 33.4645 340.445 32.5205C340.25 31.5602 339.933 30.7139 339.493 29.9814C339.07 29.2327 338.508 28.6468 337.809 28.2236C337.109 27.8005 336.262 27.5889 335.27 27.5889C334.277 27.5889 333.43 27.8005 332.73 28.2236C332.047 28.6468 331.485 29.2327 331.046 29.9814C330.623 30.7139 330.313 31.5602 330.118 32.5205C329.923 33.4645 329.825 34.4736 329.825 35.5479ZM331.9 19.0195L336.686 11.5H344.327L337.613 19.0195H331.9ZM368.863 22.584H375.235V48.1211C375.235 50.5299 374.698 52.5726 373.624 54.249C372.566 55.9417 371.085 57.2194 369.181 58.082C367.276 58.9609 365.063 59.4004 362.54 59.4004C361.433 59.4004 360.261 59.2539 359.024 58.9609C357.804 58.668 356.632 58.2122 355.509 57.5938C354.402 56.9753 353.474 56.194 352.726 55.25L355.826 51.0996C356.64 52.0436 357.584 52.776 358.658 53.2969C359.732 53.834 360.921 54.1025 362.223 54.1025C363.492 54.1025 364.566 53.8665 365.445 53.3945C366.324 52.9388 367 52.2633 367.472 51.3682C367.944 50.4893 368.18 49.4232 368.18 48.1699V28.6875L368.863 22.584ZM351.09 36.1094V35.5967C351.09 33.5785 351.334 31.7474 351.822 30.1035C352.327 28.4434 353.035 27.0192 353.946 25.8311C354.874 24.6429 355.997 23.7233 357.315 23.0723C358.634 22.4212 360.123 22.0957 361.783 22.0957C363.541 22.0957 365.014 22.4212 366.202 23.0723C367.39 23.7233 368.367 24.651 369.132 25.8555C369.897 27.0436 370.491 28.4515 370.914 30.0791C371.354 31.6904 371.695 33.4564 371.939 35.377V36.5C371.695 38.3392 371.329 40.0482 370.841 41.627C370.353 43.2057 369.71 44.5892 368.912 45.7773C368.115 46.9492 367.122 47.8607 365.934 48.5117C364.762 49.1628 363.362 49.4883 361.734 49.4883C360.107 49.4883 358.634 49.1546 357.315 48.4873C356.013 47.82 354.898 46.8841 353.971 45.6797C353.043 44.4753 352.327 43.0592 351.822 41.4316C351.334 39.804 351.09 38.0299 351.09 36.1094ZM358.121 35.5967V36.1094C358.121 37.1999 358.227 38.2171 358.438 39.1611C358.65 40.1051 358.976 40.9434 359.415 41.6758C359.871 42.3919 360.432 42.9535 361.1 43.3604C361.783 43.751 362.589 43.9463 363.517 43.9463C364.802 43.9463 365.852 43.6777 366.666 43.1406C367.48 42.5872 368.09 41.8304 368.497 40.8701C368.904 39.9098 369.14 38.8031 369.205 37.5498V34.3516C369.173 33.3262 369.034 32.4066 368.79 31.5928C368.546 30.7627 368.204 30.0547 367.765 29.4688C367.325 28.8828 366.756 28.4271 366.056 28.1016C365.356 27.776 364.526 27.6133 363.565 27.6133C362.638 27.6133 361.832 27.8249 361.148 28.248C360.481 28.6549 359.92 29.2165 359.464 29.9326C359.024 30.6488 358.691 31.4951 358.463 32.4717C358.235 33.432 358.121 34.4736 358.121 35.5967ZM387.589 28.2236V49H380.558V22.584H387.149L387.589 28.2236ZM386.563 34.8643H384.659C384.659 32.9111 384.911 31.1533 385.416 29.5908C385.921 28.012 386.629 26.6693 387.54 25.5625C388.451 24.4395 389.534 23.585 390.787 22.999C392.057 22.3968 393.473 22.0957 395.035 22.0957C396.272 22.0957 397.403 22.2747 398.429 22.6328C399.454 22.9909 400.333 23.5605 401.065 24.3418C401.814 25.123 402.384 26.1566 402.774 27.4424C403.181 28.7282 403.385 30.2988 403.385 32.1543V49H396.305V32.1299C396.305 30.958 396.142 30.0465 395.816 29.3955C395.491 28.7445 395.011 28.2887 394.376 28.0283C393.757 27.7516 392.993 27.6133 392.081 27.6133C391.137 27.6133 390.315 27.8005 389.615 28.1748C388.932 28.5492 388.362 29.07 387.906 29.7373C387.467 30.3883 387.133 31.1533 386.905 32.0322C386.677 32.9111 386.563 33.8551 386.563 34.8643ZM407.608 36.0605V35.5479C407.608 33.611 407.885 31.8288 408.438 30.2012C408.992 28.5573 409.798 27.1331 410.855 25.9287C411.913 24.7243 413.215 23.7884 414.762 23.1211C416.308 22.4375 418.082 22.0957 420.084 22.0957C422.086 22.0957 423.868 22.4375 425.431 23.1211C426.993 23.7884 428.303 24.7243 429.361 25.9287C430.436 27.1331 431.249 28.5573 431.803 30.2012C432.356 31.8288 432.633 33.611 432.633 35.5479V36.0605C432.633 37.9811 432.356 39.7633 431.803 41.4072C431.249 43.0348 430.436 44.459 429.361 45.6797C428.303 46.8841 427.001 47.82 425.455 48.4873C423.909 49.1546 422.135 49.4883 420.133 49.4883C418.131 49.4883 416.349 49.1546 414.786 48.4873C413.24 47.82 411.93 46.8841 410.855 45.6797C409.798 44.459 408.992 43.0348 408.438 41.4072C407.885 39.7633 407.608 37.9811 407.608 36.0605ZM414.64 35.5479V36.0605C414.64 37.1673 414.737 38.2008 414.933 39.1611C415.128 40.1214 415.437 40.9678 415.86 41.7002C416.3 42.4163 416.869 42.9779 417.569 43.3848C418.269 43.7917 419.124 43.9951 420.133 43.9951C421.109 43.9951 421.948 43.7917 422.647 43.3848C423.347 42.9779 423.909 42.4163 424.332 41.7002C424.755 40.9678 425.064 40.1214 425.26 39.1611C425.471 38.2008 425.577 37.1673 425.577 36.0605V35.5479C425.577 34.4736 425.471 33.4645 425.26 32.5205C425.064 31.5602 424.747 30.7139 424.308 29.9814C423.884 29.2327 423.323 28.6468 422.623 28.2236C421.923 27.8005 421.077 27.5889 420.084 27.5889C419.091 27.5889 418.245 27.8005 417.545 28.2236C416.861 28.6468 416.3 29.2327 415.86 29.9814C415.437 30.7139 415.128 31.5602 414.933 32.5205C414.737 33.4645 414.64 34.4736 414.64 35.5479Z" fill="white"/>
<path d="M32.0245 42.8057C26.0733 42.8057 21.2433 37.9757 21.2433 32.0245C21.2433 26.0732 26.0733 21.2432 32.0245 21.2432C37.9758 21.2432 42.8058 26.0732 42.8058 32.0245C42.8058 37.9757 37.9758 42.8057 32.0245 42.8057ZM32.0245 25.5557C28.4595 25.5557 25.5558 28.4595 25.5558 32.0245C25.5558 35.5895 28.4595 38.4932 32.0245 38.4932C35.5895 38.4932 38.4933 35.5895 38.4933 32.0245C38.4933 28.4595 35.5895 25.5557 32.0245 25.5557Z" fill="black"/>
<path d="M44.1631 4.45947H20.7018L4.45947 20.7018V44.1631L20.7018 60.4054H44.1631L60.4054 44.1631V20.7018L44.1631 4.45947Z" stroke="black" stroke-width="7"/>
</svg>
