<svg width="254" height="39" viewBox="0 0 254 39" fill="none" xmlns="http://www.w3.org/2000/svg">
<path d="M50.434 13.79V18.34H56.544V21.226H50.434V26.036H57.324V29H46.794V10.826H57.324V13.79H50.434ZM66.4039 29.234C65.2252 29.234 64.1679 29.026 63.2319 28.61C62.2959 28.1767 61.5506 27.596 60.9959 26.868C60.4586 26.14 60.1639 25.334 60.1119 24.45H63.7779C63.8472 25.0047 64.1159 25.464 64.5839 25.828C65.0692 26.192 65.6672 26.374 66.3779 26.374C67.0712 26.374 67.6086 26.2353 67.9899 25.958C68.3886 25.6807 68.5879 25.3253 68.5879 24.892C68.5879 24.424 68.3452 24.0773 67.8599 23.852C67.3919 23.6093 66.6379 23.3493 65.5979 23.072C64.5232 22.812 63.6392 22.5433 62.9459 22.266C62.2699 21.9887 61.6806 21.564 61.1779 20.992C60.6926 20.42 60.4499 19.6487 60.4499 18.678C60.4499 17.8807 60.6752 17.1527 61.1259 16.494C61.5939 15.8353 62.2526 15.3153 63.1019 14.934C63.9686 14.5527 64.9826 14.362 66.1439 14.362C67.8599 14.362 69.2292 14.7953 70.2519 15.662C71.2746 16.5113 71.8379 17.664 71.9419 19.12H68.4579C68.4059 18.548 68.1632 18.0973 67.7299 17.768C67.3139 17.4213 66.7506 17.248 66.0399 17.248C65.3812 17.248 64.8699 17.3693 64.5059 17.612C64.1592 17.8547 63.9859 18.1927 63.9859 18.626C63.9859 19.1113 64.2286 19.484 64.7139 19.744C65.1992 19.9867 65.9532 20.238 66.9759 20.498C68.0159 20.758 68.8739 21.0267 69.5499 21.304C70.2259 21.5813 70.8066 22.0147 71.2919 22.604C71.7946 23.176 72.0546 23.9387 72.0719 24.892C72.0719 25.724 71.8379 26.4693 71.3699 27.128C70.9192 27.7867 70.2606 28.3067 69.3939 28.688C68.5446 29.052 67.5479 29.234 66.4039 29.234ZM74.3839 21.798C74.3839 20.3073 74.6872 19.0073 75.2939 17.898C75.9005 16.7713 76.7412 15.9047 77.8159 15.298C78.8905 14.674 80.1212 14.362 81.5079 14.362C83.2932 14.362 84.7665 14.8127 85.9279 15.714C87.1065 16.598 87.8952 17.846 88.2939 19.458H84.3679C84.1599 18.834 83.8045 18.3487 83.3019 18.002C82.8165 17.638 82.2099 17.456 81.4819 17.456C80.4419 17.456 79.6185 17.8373 79.0119 18.6C78.4052 19.3453 78.1019 20.4113 78.1019 21.798C78.1019 23.1673 78.4052 24.2333 79.0119 24.996C79.6185 25.7413 80.4419 26.114 81.4819 26.114C82.9552 26.114 83.9172 25.4553 84.3679 24.138H88.2939C87.8952 25.698 87.1065 26.9373 85.9279 27.856C84.7492 28.7747 83.2759 29.234 81.5079 29.234C80.1212 29.234 78.8905 28.9307 77.8159 28.324C76.7412 27.7 75.9005 26.8333 75.2939 25.724C74.6872 24.5973 74.3839 23.2887 74.3839 21.798ZM97.6165 29.234C96.2298 29.234 94.9818 28.9307 93.8725 28.324C92.7631 27.7 91.8878 26.8247 91.2465 25.698C90.6225 24.5713 90.3105 23.2713 90.3105 21.798C90.3105 20.3247 90.6311 19.0247 91.2725 17.898C91.9311 16.7713 92.8238 15.9047 93.9505 15.298C95.0772 14.674 96.3338 14.362 97.7205 14.362C99.1072 14.362 100.364 14.674 101.49 15.298C102.617 15.9047 103.501 16.7713 104.142 17.898C104.801 19.0247 105.13 20.3247 105.13 21.798C105.13 23.2713 104.792 24.5713 104.116 25.698C103.458 26.8247 102.556 27.7 101.412 28.324C100.286 28.9307 99.0205 29.234 97.6165 29.234ZM97.6165 26.062C98.2752 26.062 98.8905 25.906 99.4625 25.594C100.052 25.2647 100.52 24.7793 100.866 24.138C101.213 23.4967 101.386 22.7167 101.386 21.798C101.386 20.4287 101.022 19.38 100.294 18.652C99.5838 17.9067 98.7085 17.534 97.6685 17.534C96.6285 17.534 95.7531 17.9067 95.0425 18.652C94.3492 19.38 94.0025 20.4287 94.0025 21.798C94.0025 23.1673 94.3405 24.2247 95.0165 24.97C95.7098 25.698 96.5765 26.062 97.6165 26.062ZM111.701 9.76V29H108.061V9.76H111.701ZM114.621 21.746C114.621 20.29 114.907 18.9987 115.479 17.872C116.068 16.7453 116.857 15.8787 117.845 15.272C118.85 14.6653 119.968 14.362 121.199 14.362C122.274 14.362 123.21 14.5787 124.007 15.012C124.822 15.4453 125.472 15.9913 125.957 16.65V14.596H129.623V29H125.957V26.894C125.489 27.57 124.839 28.1333 124.007 28.584C123.192 29.0173 122.248 29.234 121.173 29.234C119.96 29.234 118.85 28.922 117.845 28.298C116.857 27.674 116.068 26.7987 115.479 25.672C114.907 24.528 114.621 23.2193 114.621 21.746ZM125.957 21.798C125.957 20.914 125.784 20.16 125.437 19.536C125.09 18.8947 124.622 18.4093 124.033 18.08C123.444 17.7333 122.811 17.56 122.135 17.56C121.459 17.56 120.835 17.7247 120.263 18.054C119.691 18.3833 119.223 18.8687 118.859 19.51C118.512 20.134 118.339 20.8793 118.339 21.746C118.339 22.6127 118.512 23.3753 118.859 24.034C119.223 24.6753 119.691 25.1693 120.263 25.516C120.852 25.8627 121.476 26.036 122.135 26.036C122.811 26.036 123.444 25.8713 124.033 25.542C124.622 25.1953 125.09 24.71 125.437 24.086C125.784 23.4447 125.957 22.682 125.957 21.798ZM148.317 29.182C146.619 29.182 145.059 28.7833 143.637 27.986C142.216 27.1887 141.089 26.088 140.257 24.684C139.425 23.2627 139.009 21.6593 139.009 19.874C139.009 18.106 139.425 16.52 140.257 15.116C141.089 13.6947 142.216 12.5853 143.637 11.788C145.059 10.9907 146.619 10.592 148.317 10.592C150.033 10.592 151.593 10.9907 152.997 11.788C154.419 12.5853 155.537 13.6947 156.351 15.116C157.183 16.52 157.599 18.106 157.599 19.874C157.599 21.6593 157.183 23.2627 156.351 24.684C155.537 26.088 154.419 27.1887 152.997 27.986C151.576 28.7833 150.016 29.182 148.317 29.182ZM148.317 25.932C149.409 25.932 150.371 25.6893 151.203 25.204C152.035 24.7013 152.685 23.9907 153.153 23.072C153.621 22.1533 153.855 21.0873 153.855 19.874C153.855 18.6607 153.621 17.6033 153.153 16.702C152.685 15.7833 152.035 15.0813 151.203 14.596C150.371 14.1107 149.409 13.868 148.317 13.868C147.225 13.868 146.255 14.1107 145.405 14.596C144.573 15.0813 143.923 15.7833 143.455 16.702C142.987 17.6033 142.753 18.6607 142.753 19.874C142.753 21.0873 142.987 22.1533 143.455 23.072C143.923 23.9907 144.573 24.7013 145.405 25.204C146.255 25.6893 147.225 25.932 148.317 25.932ZM159.631 21.798C159.631 20.3073 159.935 19.0073 160.541 17.898C161.148 16.7713 161.989 15.9047 163.063 15.298C164.138 14.674 165.369 14.362 166.755 14.362C168.541 14.362 170.014 14.8127 171.175 15.714C172.354 16.598 173.143 17.846 173.541 19.458H169.615C169.407 18.834 169.052 18.3487 168.549 18.002C168.064 17.638 167.457 17.456 166.729 17.456C165.689 17.456 164.866 17.8373 164.259 18.6C163.653 19.3453 163.349 20.4113 163.349 21.798C163.349 23.1673 163.653 24.2333 164.259 24.996C164.866 25.7413 165.689 26.114 166.729 26.114C168.203 26.114 169.165 25.4553 169.615 24.138H173.541C173.143 25.698 172.354 26.9373 171.175 27.856C169.997 28.7747 168.523 29.234 166.755 29.234C165.369 29.234 164.138 28.9307 163.063 28.324C161.989 27.7 161.148 26.8333 160.541 25.724C159.935 24.5973 159.631 23.2887 159.631 21.798ZM180.706 17.586V24.554C180.706 25.0393 180.819 25.3947 181.044 25.62C181.287 25.828 181.685 25.932 182.24 25.932H183.93V29H181.642C178.574 29 177.04 27.5093 177.04 24.528V17.586H175.324V14.596H177.04V11.034H180.706V14.596H183.93V17.586H180.706ZM193.204 29.234C191.817 29.234 190.569 28.9307 189.46 28.324C188.351 27.7 187.475 26.8247 186.834 25.698C186.21 24.5713 185.898 23.2713 185.898 21.798C185.898 20.3247 186.219 19.0247 186.86 17.898C187.519 16.7713 188.411 15.9047 189.538 15.298C190.665 14.674 191.921 14.362 193.308 14.362C194.695 14.362 195.951 14.674 197.078 15.298C198.205 15.9047 199.089 16.7713 199.73 17.898C200.389 19.0247 200.718 20.3247 200.718 21.798C200.718 23.2713 200.38 24.5713 199.704 25.698C199.045 26.8247 198.144 27.7 197 28.324C195.873 28.9307 194.608 29.234 193.204 29.234ZM193.204 26.062C193.863 26.062 194.478 25.906 195.05 25.594C195.639 25.2647 196.107 24.7793 196.454 24.138C196.801 23.4967 196.974 22.7167 196.974 21.798C196.974 20.4287 196.61 19.38 195.882 18.652C195.171 17.9067 194.296 17.534 193.256 17.534C192.216 17.534 191.341 17.9067 190.63 18.652C189.937 19.38 189.59 20.4287 189.59 21.798C189.59 23.1673 189.928 24.2247 190.604 24.97C191.297 25.698 192.164 26.062 193.204 26.062ZM196.298 10.67L190.318 13.4V10.8L196.298 7.706V10.67ZM209.29 14.362C210.365 14.362 211.309 14.5787 212.124 15.012C212.939 15.428 213.58 15.974 214.048 16.65V14.596H217.714V29.104C217.714 30.4387 217.445 31.626 216.908 32.666C216.371 33.7233 215.565 34.5553 214.49 35.162C213.415 35.786 212.115 36.098 210.59 36.098C208.545 36.098 206.863 35.6213 205.546 34.668C204.246 33.7147 203.509 32.4147 203.336 30.768H206.95C207.141 31.4267 207.548 31.9467 208.172 32.328C208.813 32.7267 209.585 32.926 210.486 32.926C211.543 32.926 212.401 32.6053 213.06 31.964C213.719 31.34 214.048 30.3867 214.048 29.104V26.868C213.58 27.544 212.93 28.1073 212.098 28.558C211.283 29.0087 210.347 29.234 209.29 29.234C208.077 29.234 206.967 28.922 205.962 28.298C204.957 27.674 204.159 26.7987 203.57 25.672C202.998 24.528 202.712 23.2193 202.712 21.746C202.712 20.29 202.998 18.9987 203.57 17.872C204.159 16.7453 204.948 15.8787 205.936 15.272C206.941 14.6653 208.059 14.362 209.29 14.362ZM214.048 21.798C214.048 20.914 213.875 20.16 213.528 19.536C213.181 18.8947 212.713 18.4093 212.124 18.08C211.535 17.7333 210.902 17.56 210.226 17.56C209.55 17.56 208.926 17.7247 208.354 18.054C207.782 18.3833 207.314 18.8687 206.95 19.51C206.603 20.134 206.43 20.8793 206.43 21.746C206.43 22.6127 206.603 23.3753 206.95 24.034C207.314 24.6753 207.782 25.1693 208.354 25.516C208.943 25.8627 209.567 26.036 210.226 26.036C210.902 26.036 211.535 25.8713 212.124 25.542C212.713 25.1953 213.181 24.71 213.528 24.086C213.875 23.4447 214.048 22.682 214.048 21.798ZM229.511 14.388C231.227 14.388 232.614 14.934 233.671 16.026C234.729 17.1007 235.257 18.6087 235.257 20.55V29H231.617V21.044C231.617 19.9 231.331 19.0247 230.759 18.418C230.187 17.794 229.407 17.482 228.419 17.482C227.414 17.482 226.617 17.794 226.027 18.418C225.455 19.0247 225.169 19.9 225.169 21.044V29H221.529V14.596H225.169V16.39C225.655 15.766 226.27 15.2807 227.015 14.934C227.778 14.57 228.61 14.388 229.511 14.388ZM245.375 29.234C243.988 29.234 242.74 28.9307 241.631 28.324C240.521 27.7 239.646 26.8247 239.005 25.698C238.381 24.5713 238.069 23.2713 238.069 21.798C238.069 20.3247 238.389 19.0247 239.031 17.898C239.689 16.7713 240.582 15.9047 241.709 15.298C242.835 14.674 244.092 14.362 245.479 14.362C246.865 14.362 248.122 14.674 249.249 15.298C250.375 15.9047 251.259 16.7713 251.901 17.898C252.559 19.0247 252.889 20.3247 252.889 21.798C252.889 23.2713 252.551 24.5713 251.875 25.698C251.216 26.8247 250.315 27.7 249.171 28.324C248.044 28.9307 246.779 29.234 245.375 29.234ZM245.375 26.062C246.033 26.062 246.649 25.906 247.221 25.594C247.81 25.2647 248.278 24.7793 248.625 24.138C248.971 23.4967 249.145 22.7167 249.145 21.798C249.145 20.4287 248.781 19.38 248.053 18.652C247.342 17.9067 246.467 17.534 245.427 17.534C244.387 17.534 243.511 17.9067 242.801 18.652C242.107 19.38 241.761 20.4287 241.761 21.798C241.761 23.1673 242.099 24.2247 242.775 24.97C243.468 25.698 244.335 26.062 245.375 26.062Z" fill="black"/>
<g clip-path="url(#clip0_16_2770)">
<path d="M18.7812 25.5625C15.59 25.5625 13 22.9725 13 19.7812C13 16.59 15.59 14 18.7812 14C21.9725 14 24.5625 16.59 24.5625 19.7812C24.5625 22.9725 21.9725 25.5625 18.7812 25.5625ZM18.7812 16.3125C16.8696 16.3125 15.3125 17.8696 15.3125 19.7812C15.3125 21.6929 16.8696 23.25 18.7812 23.25C20.6929 23.25 22.25 21.6929 22.25 19.7812C22.25 17.8696 20.6929 16.3125 18.7812 16.3125Z" fill="black"/>
<path d="M25.2903 5H12.7097L4 13.7097V26.2903L12.7097 35H25.2903L34 26.2903V13.7097L25.2903 5Z" stroke="#F18900" stroke-width="7"/>
</g>
<defs>
<clipPath id="clip0_16_2770">
<rect width="37" height="37" fill="white" transform="translate(0 1)"/>
</clipPath>
</defs>
</svg>
