<svg width="595" height="842" style="" viewBox="0 0 595 842" fill="none" xmlns="http://www.w3.org/2000/svg">
<rect width="595" height="842" fill="white"/>
<path d="M173.569 392.015V399.19H183.204V403.741H173.569V411.326H184.434V416H167.829V387.341H184.434V392.015H173.569ZM198.752 416.369C196.894 416.369 195.226 416.041 193.75 415.385C192.274 414.702 191.099 413.786 190.224 412.638C189.377 411.49 188.912 410.219 188.83 408.825H194.611C194.721 409.7 195.144 410.424 195.882 410.998C196.648 411.572 197.591 411.859 198.711 411.859C199.805 411.859 200.652 411.64 201.253 411.203C201.882 410.766 202.196 410.205 202.196 409.522C202.196 408.784 201.814 408.237 201.048 407.882C200.31 407.499 199.121 407.089 197.481 406.652C195.787 406.242 194.393 405.818 193.299 405.381C192.233 404.944 191.304 404.274 190.511 403.372C189.746 402.47 189.363 401.254 189.363 399.723C189.363 398.466 189.719 397.318 190.429 396.279C191.167 395.24 192.206 394.42 193.545 393.819C194.912 393.218 196.511 392.917 198.342 392.917C201.048 392.917 203.208 393.6 204.82 394.967C206.433 396.306 207.321 398.124 207.485 400.42H201.991C201.909 399.518 201.527 398.807 200.843 398.288C200.187 397.741 199.299 397.468 198.178 397.468C197.14 397.468 196.333 397.659 195.759 398.042C195.213 398.425 194.939 398.958 194.939 399.641C194.939 400.406 195.322 400.994 196.087 401.404C196.853 401.787 198.042 402.183 199.654 402.593C201.294 403.003 202.647 403.427 203.713 403.864C204.779 404.301 205.695 404.985 206.46 405.914C207.253 406.816 207.663 408.019 207.69 409.522C207.69 410.834 207.321 412.009 206.583 413.048C205.873 414.087 204.834 414.907 203.467 415.508C202.128 416.082 200.556 416.369 198.752 416.369ZM211.336 404.643C211.336 402.292 211.814 400.242 212.771 398.493C213.728 396.716 215.053 395.35 216.748 394.393C218.443 393.409 220.383 392.917 222.57 392.917C225.385 392.917 227.709 393.628 229.54 395.049C231.399 396.443 232.642 398.411 233.271 400.953H227.08C226.752 399.969 226.192 399.204 225.399 398.657C224.634 398.083 223.677 397.796 222.529 397.796C220.889 397.796 219.591 398.397 218.634 399.6C217.677 400.775 217.199 402.456 217.199 404.643C217.199 406.802 217.677 408.483 218.634 409.686C219.591 410.861 220.889 411.449 222.529 411.449C224.852 411.449 226.369 410.41 227.08 408.333H233.271C232.642 410.793 231.399 412.747 229.54 414.196C227.681 415.645 225.358 416.369 222.57 416.369C220.383 416.369 218.443 415.891 216.748 414.934C215.053 413.95 213.728 412.583 212.771 410.834C211.814 409.057 211.336 406.994 211.336 404.643ZM247.972 416.369C245.785 416.369 243.817 415.891 242.068 414.934C240.319 413.95 238.938 412.57 237.927 410.793C236.943 409.016 236.451 406.966 236.451 404.643C236.451 402.32 236.957 400.27 237.968 398.493C239.007 396.716 240.414 395.35 242.191 394.393C243.968 393.409 245.949 392.917 248.136 392.917C250.323 392.917 252.304 393.409 254.081 394.393C255.858 395.35 257.252 396.716 258.263 398.493C259.302 400.27 259.821 402.32 259.821 404.643C259.821 406.966 259.288 409.016 258.222 410.793C257.183 412.57 255.762 413.95 253.958 414.934C252.181 415.891 250.186 416.369 247.972 416.369ZM247.972 411.367C249.011 411.367 249.981 411.121 250.883 410.629C251.812 410.11 252.55 409.344 253.097 408.333C253.644 407.322 253.917 406.092 253.917 404.643C253.917 402.484 253.343 400.83 252.195 399.682C251.074 398.507 249.694 397.919 248.054 397.919C246.414 397.919 245.034 398.507 243.913 399.682C242.82 400.83 242.273 402.484 242.273 404.643C242.273 406.802 242.806 408.47 243.872 409.645C244.965 410.793 246.332 411.367 247.972 411.367ZM270.182 385.66V416H264.442V385.66H270.182ZM274.787 404.561C274.787 402.265 275.238 400.229 276.14 398.452C277.069 396.675 278.313 395.309 279.871 394.352C281.456 393.395 283.219 392.917 285.16 392.917C286.854 392.917 288.33 393.259 289.588 393.942C290.872 394.625 291.897 395.486 292.663 396.525V393.286H298.444V416H292.663V412.679C291.925 413.745 290.9 414.633 289.588 415.344C288.303 416.027 286.813 416.369 285.119 416.369C283.205 416.369 281.456 415.877 279.871 414.893C278.313 413.909 277.069 412.529 276.14 410.752C275.238 408.948 274.787 406.884 274.787 404.561ZM292.663 404.643C292.663 403.249 292.389 402.06 291.843 401.076C291.296 400.065 290.558 399.299 289.629 398.78C288.699 398.233 287.702 397.96 286.636 397.96C285.57 397.96 284.586 398.22 283.684 398.739C282.782 399.258 282.044 400.024 281.47 401.035C280.923 402.019 280.65 403.194 280.65 404.561C280.65 405.928 280.923 407.13 281.47 408.169C282.044 409.18 282.782 409.959 283.684 410.506C284.613 411.053 285.597 411.326 286.636 411.326C287.702 411.326 288.699 411.066 289.629 410.547C290.558 410 291.296 409.235 291.843 408.251C292.389 407.24 292.663 406.037 292.663 404.643ZM327.923 416.287C325.245 416.287 322.785 415.658 320.543 414.401C318.302 413.144 316.525 411.408 315.213 409.194C313.901 406.953 313.245 404.424 313.245 401.609C313.245 398.821 313.901 396.32 315.213 394.106C316.525 391.865 318.302 390.115 320.543 388.858C322.785 387.601 325.245 386.972 327.923 386.972C330.629 386.972 333.089 387.601 335.303 388.858C337.545 390.115 339.308 391.865 340.592 394.106C341.904 396.32 342.56 398.821 342.56 401.609C342.56 404.424 341.904 406.953 340.592 409.194C339.308 411.408 337.545 413.144 335.303 414.401C333.062 415.658 330.602 416.287 327.923 416.287ZM327.923 411.162C329.645 411.162 331.162 410.779 332.474 410.014C333.786 409.221 334.811 408.101 335.549 406.652C336.287 405.203 336.656 403.522 336.656 401.609C336.656 399.696 336.287 398.028 335.549 396.607C334.811 395.158 333.786 394.051 332.474 393.286C331.162 392.521 329.645 392.138 327.923 392.138C326.201 392.138 324.671 392.521 323.331 393.286C322.019 394.051 320.994 395.158 320.256 396.607C319.518 398.028 319.149 399.696 319.149 401.609C319.149 403.522 319.518 405.203 320.256 406.652C320.994 408.101 322.019 409.221 323.331 410.014C324.671 410.779 326.201 411.162 327.923 411.162ZM345.765 404.643C345.765 402.292 346.243 400.242 347.2 398.493C348.157 396.716 349.482 395.35 351.177 394.393C352.872 393.409 354.812 392.917 356.999 392.917C359.814 392.917 362.138 393.628 363.969 395.049C365.828 396.443 367.071 398.411 367.7 400.953H361.509C361.181 399.969 360.621 399.204 359.828 398.657C359.063 398.083 358.106 397.796 356.958 397.796C355.318 397.796 354.02 398.397 353.063 399.6C352.106 400.775 351.628 402.456 351.628 404.643C351.628 406.802 352.106 408.483 353.063 409.686C354.02 410.861 355.318 411.449 356.958 411.449C359.281 411.449 360.798 410.41 361.509 408.333H367.7C367.071 410.793 365.828 412.747 363.969 414.196C362.11 415.645 359.787 416.369 356.999 416.369C354.812 416.369 352.872 415.891 351.177 414.934C349.482 413.95 348.157 412.583 347.2 410.834C346.243 409.057 345.765 406.994 345.765 404.643ZM378.998 398.001V408.989C378.998 409.754 379.176 410.315 379.531 410.67C379.914 410.998 380.542 411.162 381.417 411.162H384.082V416H380.474C375.636 416 373.217 413.649 373.217 408.948V398.001H370.511V393.286H373.217V387.669H378.998V393.286H384.082V398.001H378.998ZM398.706 416.369C396.52 416.369 394.552 415.891 392.802 414.934C391.053 413.95 389.673 412.57 388.661 410.793C387.677 409.016 387.185 406.966 387.185 404.643C387.185 402.32 387.691 400.27 388.702 398.493C389.741 396.716 391.149 395.35 392.925 394.393C394.702 393.409 396.684 392.917 398.87 392.917C401.057 392.917 403.039 393.409 404.815 394.393C406.592 395.35 407.986 396.716 408.997 398.493C410.036 400.27 410.555 402.32 410.555 404.643C410.555 406.966 410.022 409.016 408.956 410.793C407.918 412.57 406.496 413.95 404.692 414.934C402.916 415.891 400.92 416.369 398.706 416.369ZM398.706 411.367C399.745 411.367 400.715 411.121 401.617 410.629C402.547 410.11 403.285 409.344 403.831 408.333C404.378 407.322 404.651 406.092 404.651 404.643C404.651 402.484 404.077 400.83 402.929 399.682C401.809 398.507 400.428 397.919 398.788 397.919C397.148 397.919 395.768 398.507 394.647 399.682C393.554 400.83 393.007 402.484 393.007 404.643C393.007 406.802 393.54 408.47 394.606 409.645C395.7 410.793 397.066 411.367 398.706 411.367ZM403.585 387.095L394.155 391.4V387.3L403.585 382.421V387.095ZM424.073 392.917C425.768 392.917 427.257 393.259 428.542 393.942C429.827 394.598 430.838 395.459 431.576 396.525V393.286H437.357V416.164C437.357 418.269 436.933 420.141 436.086 421.781C435.239 423.448 433.968 424.76 432.273 425.717C430.578 426.701 428.528 427.193 426.123 427.193C422.898 427.193 420.246 426.441 418.169 424.938C416.119 423.435 414.957 421.385 414.684 418.788H420.383C420.684 419.827 421.326 420.647 422.31 421.248C423.321 421.877 424.538 422.191 425.959 422.191C427.626 422.191 428.979 421.685 430.018 420.674C431.057 419.69 431.576 418.187 431.576 416.164V412.638C430.838 413.704 429.813 414.592 428.501 415.303C427.216 416.014 425.74 416.369 424.073 416.369C422.16 416.369 420.41 415.877 418.825 414.893C417.24 413.909 415.982 412.529 415.053 410.752C414.151 408.948 413.7 406.884 413.7 404.561C413.7 402.265 414.151 400.229 415.053 398.452C415.982 396.675 417.226 395.309 418.784 394.352C420.369 393.395 422.132 392.917 424.073 392.917ZM431.576 404.643C431.576 403.249 431.303 402.06 430.756 401.076C430.209 400.065 429.471 399.299 428.542 398.78C427.613 398.233 426.615 397.96 425.549 397.96C424.483 397.96 423.499 398.22 422.597 398.739C421.695 399.258 420.957 400.024 420.383 401.035C419.836 402.019 419.563 403.194 419.563 404.561C419.563 405.928 419.836 407.13 420.383 408.169C420.957 409.18 421.695 409.959 422.597 410.506C423.526 411.053 424.51 411.326 425.549 411.326C426.615 411.326 427.613 411.066 428.542 410.547C429.471 410 430.209 409.235 430.756 408.251C431.303 407.24 431.576 406.037 431.576 404.643ZM453.459 416.369C451.272 416.369 449.304 415.891 447.555 414.934C445.806 413.95 444.425 412.57 443.414 410.793C442.43 409.016 441.938 406.966 441.938 404.643C441.938 402.32 442.444 400.27 443.455 398.493C444.494 396.716 445.901 395.35 447.678 394.393C449.455 393.409 451.436 392.917 453.623 392.917C455.81 392.917 457.791 393.409 459.568 394.393C461.345 395.35 462.739 396.716 463.75 398.493C464.789 400.27 465.308 402.32 465.308 404.643C465.308 406.966 464.775 409.016 463.709 410.793C462.67 412.57 461.249 413.95 459.445 414.934C457.668 415.891 455.673 416.369 453.459 416.369ZM453.459 411.367C454.498 411.367 455.468 411.121 456.37 410.629C457.299 410.11 458.037 409.344 458.584 408.333C459.131 407.322 459.404 406.092 459.404 404.643C459.404 402.484 458.83 400.83 457.682 399.682C456.561 398.507 455.181 397.919 453.541 397.919C451.901 397.919 450.521 398.507 449.4 399.682C448.307 400.83 447.76 402.484 447.76 404.643C447.76 406.802 448.293 408.47 449.359 409.645C450.452 410.793 451.819 411.367 453.459 411.367ZM482.516 392.958C485.222 392.958 487.408 393.819 489.076 395.541C490.743 397.236 491.577 399.614 491.577 402.675V416H485.837V403.454C485.837 401.65 485.386 400.27 484.484 399.313C483.582 398.329 482.352 397.837 480.794 397.837C479.208 397.837 477.951 398.329 477.022 399.313C476.12 400.27 475.669 401.65 475.669 403.454V416H469.929V393.286H475.669V396.115C476.434 395.131 477.404 394.366 478.58 393.819C479.782 393.245 481.094 392.958 482.516 392.958ZM507.531 416.369C505.344 416.369 503.376 415.891 501.627 414.934C499.878 413.95 498.497 412.57 497.486 410.793C496.502 409.016 496.01 406.966 496.01 404.643C496.01 402.32 496.516 400.27 497.527 398.493C498.566 396.716 499.973 395.35 501.75 394.393C503.527 393.409 505.508 392.917 507.695 392.917C509.882 392.917 511.863 393.409 513.64 394.393C515.417 395.35 516.811 396.716 517.822 398.493C518.861 400.27 519.38 402.32 519.38 404.643C519.38 406.966 518.847 409.016 517.781 410.793C516.742 412.57 515.321 413.95 513.517 414.934C511.74 415.891 509.745 416.369 507.531 416.369ZM507.531 411.367C508.57 411.367 509.54 411.121 510.442 410.629C511.371 410.11 512.109 409.344 512.656 408.333C513.203 407.322 513.476 406.092 513.476 404.643C513.476 402.484 512.902 400.83 511.754 399.682C510.633 398.507 509.253 397.919 507.613 397.919C505.973 397.919 504.593 398.507 503.472 399.682C502.379 400.83 501.832 402.484 501.832 404.643C501.832 406.802 502.365 408.47 503.431 409.645C504.524 410.793 505.891 411.367 507.531 411.367Z" fill="black" fill-opacity="0.2"/>
<path d="M111.125 417.25C103.88 417.25 98 411.37 98 404.125C98 396.88 103.88 391 111.125 391C118.37 391 124.25 396.88 124.25 404.125C124.25 411.37 118.37 417.25 111.125 417.25ZM111.125 396.25C106.785 396.25 103.25 399.785 103.25 404.125C103.25 408.465 106.785 412 111.125 412C115.465 412 119 408.465 119 404.125C119 399.785 115.465 396.25 111.125 396.25Z" fill="black" fill-opacity="0.2"/>
<path d="M125.677 369H96.3226L76 389.323V418.677L96.3226 439H125.677L146 418.677V389.323L125.677 369Z" stroke="#F18900" stroke-opacity="0.2" stroke-width="7"/>
</svg>